# xmcd CD database file
#
# Track frame offsets:
#	150
#	26938
#	47352
#	68593
#	92345
#	111143
#	133942
#	155626
#	175937
#	205169
#	226785
#	243925
#
# Disc length: 3579 seconds
#
# Revision: 0
# Processed by: cddbd v1.5.1PL0 Copyright (c) Steve Scherf et al.
# Submitted via: CDex 1.51
#
DISCID=960df90c
DTITLE=Dramania Second Season - disk2
DYEAR=2004
DGENRE=Pop
TTITLE0=遠い街のどこかで…　中山美穂
TTITLE1=クリスマスキャロルの頃には　稲垣潤一
TTITLE2=サイレント・イヴ　辛島美登里
TTITLE3=ダイアモンド・ダスト　氷室京介
TTITLE4=シャンティ　島谷ひとみ
TTITLE5=彼女と私の事情　相川七瀬
TTITLE6=慟哭　工藤静香
TTITLE7=海とあなたの物語　未来玲可
TTITLE8=もどれない道　平松愛理
TTITLE9=風の中の火のように　KAI FIVE
TTITLE10=今すぐKiss Me　LINDBERG
TTITLE11=希望の鐘が鳴る朝に　THE ALFEE
EXTD=YEAR: 2004
EXTT0=
EXTT1=
EXTT2=
EXTT3=
EXTT4=
EXTT5=
EXTT6=
EXTT7=
EXTT8=
EXTT9=
EXTT10=
EXTT11=
PLAYORDER=
